<svg width="124" height="125" viewBox="0 0 124 125" fill="none" xmlns="http://www.w3.org/2000/svg">
<g clip-path="url(#clip0_26_368)">
<path fill-rule="evenodd" clip-rule="evenodd" d="M58.2314 0.5H65.2861C71.8279 0.5 77.4337 5.17841 78.6039 11.6147L79.8645 18.5477L85.6581 14.5367C91.0368 10.813 98.3088 11.4687 102.935 16.0945L107.923 21.0829C112.549 25.7087 113.204 32.9807 109.481 38.3593L105.47 44.153L112.403 45.4136C118.839 46.5838 123.518 52.1896 123.518 58.7314V65.7861C123.518 72.3279 118.839 77.9337 112.403 79.1039L105.47 80.3645L109.481 86.1581C113.204 91.5368 112.549 98.8088 107.923 103.435L102.935 108.423C98.3088 113.049 91.0368 113.704 85.6581 109.981L79.8645 105.97L78.6039 112.903C77.4337 119.339 71.8279 124.018 65.2861 124.018H58.2314C51.6896 124.018 46.0838 119.339 44.9136 112.903L43.7505 106.506C43.5652 106.434 43.3804 106.36 43.1963 106.286L37.8594 109.981C32.4807 113.704 25.2087 113.049 20.5829 108.423L15.5945 103.435C10.9687 98.8088 10.313 91.5368 14.0367 86.1581L17.445 81.2351C17.2914 80.8834 17.1421 80.5295 16.9968 80.1734L11.1147 79.1039C4.67842 77.9337 0 72.3279 0 65.7861V58.7314C0 52.1896 4.67842 46.5838 11.1147 45.4136L16.9968 44.3441C17.1421 43.988 17.2915 43.6341 17.445 43.2824L14.0367 38.3593C10.313 32.9807 10.9687 25.7087 15.5945 21.0829L20.5829 16.0945C25.2087 11.4687 32.4807 10.813 37.8594 14.5367L43.1963 18.2315C43.3805 18.1571 43.5652 18.0838 43.7505 18.0117L44.9136 11.6147C46.0838 5.17842 51.6896 0.5 58.2314 0.5ZM58.2314 10.6521C56.5959 10.6521 55.1945 11.8217 54.9019 13.4308L53.0389 23.6776C52.7965 25.0107 51.7781 26.0569 50.4775 26.4371C48.2856 27.0777 46.1772 27.9141 44.1725 28.926C43.0026 29.5165 41.5973 29.4721 40.5198 28.7261L32.0807 22.8837C30.736 21.9528 28.918 22.1167 27.7616 23.2731L22.7732 28.2615C21.6167 29.418 21.4528 31.236 22.3837 32.5807L28.0124 40.711C28.781 41.8212 28.8034 43.2756 28.1585 44.4619C27.0096 46.5752 26.059 48.8119 25.3316 51.1469C24.9355 52.4185 23.9002 53.4075 22.5898 53.6458L12.9308 55.4019C11.3217 55.6945 10.1521 57.0959 10.1521 58.7314V65.7861C10.1521 67.4216 11.3217 68.823 12.9308 69.1156L22.5898 70.8717C23.9002 71.11 24.9355 72.099 25.3316 73.3706C26.059 75.7057 27.0096 77.9423 28.1585 80.0556C28.8034 81.2419 28.781 82.6963 28.0124 83.8065L22.3837 91.9368C21.4528 93.2815 21.6167 95.0995 22.7731 96.2559L27.7616 101.244C28.918 102.401 30.736 102.565 32.0807 101.634L40.5198 95.7914C41.5972 95.0454 43.0025 95.0009 44.1724 95.5915C46.1772 96.6034 48.2856 97.4398 50.4775 98.0805C51.7781 98.4606 52.7965 99.5068 53.0389 100.84L54.9019 111.087C55.1945 112.696 56.5959 113.865 58.2314 113.865H65.2861C66.9216 113.865 68.323 112.696 68.6156 111.087L70.5748 100.311C70.807 99.0336 71.754 98.0146 72.983 97.5967C74.9261 96.9361 76.7972 96.1197 78.5814 95.1624C79.7649 94.5274 81.2104 94.5539 82.3147 95.3185L91.4368 101.634C92.7815 102.565 94.5995 102.401 95.7559 101.244L100.744 96.2559C101.901 95.0995 102.065 93.2815 101.134 91.9368L94.6003 82.4995C93.8585 81.428 93.8101 80.0316 94.3908 78.865C95.2228 77.1936 95.933 75.4511 96.5101 73.6489C96.913 72.3904 97.9435 71.4143 99.2436 71.1779L110.587 69.1156C112.196 68.823 113.365 67.4216 113.365 65.7861V58.7314C113.365 57.0959 112.196 55.6945 110.587 55.4019L99.2436 53.3396C97.9435 53.1032 96.913 52.1271 96.5101 50.8686C95.933 49.0664 95.2228 47.3239 94.3908 45.6525C93.8101 44.4859 93.8584 43.0895 94.6002 42.018L101.134 32.5806C102.065 31.236 101.901 29.418 100.744 28.2615L95.756 23.2731C94.5995 22.1167 92.7815 21.9527 91.4368 22.8837L82.3146 29.199C81.2103 29.9635 79.7649 29.99 78.5813 29.3551C76.7972 28.3978 74.9261 27.5814 72.983 26.9208C71.754 26.5029 70.807 25.4839 70.5748 24.2067L68.6156 13.4308C68.323 11.8217 66.9216 10.6521 65.2861 10.6521H58.2314Z" fill="black"/>
<path fill-rule="evenodd" clip-rule="evenodd" d="M60.7626 74.4334C67.7921 74.4334 73.4906 68.9826 73.4906 62.2588C73.4906 55.5349 67.7921 50.0841 60.7626 50.0841C53.733 50.0841 48.0345 55.5349 48.0345 62.2588C48.0345 68.9826 53.733 74.4334 60.7626 74.4334ZM60.7626 84.1732C73.4157 84.1732 83.6731 74.3617 83.6731 62.2588C83.6731 50.1558 73.4157 40.3444 60.7626 40.3444C48.1094 40.3444 37.8521 50.1558 37.8521 62.2588C37.8521 74.3617 48.1094 84.1732 60.7626 84.1732Z" fill="black"/>
</g>
<defs>
<clipPath id="clip0_26_368">
<rect width="124" height="124" fill="white" transform="translate(0 0.5)"/>
</clipPath>
</defs>
</svg>
