<svg width="68" height="64" viewBox="0 0 68 64" fill="none" xmlns="http://www.w3.org/2000/svg">
<path fill-rule="evenodd" clip-rule="evenodd" d="M33.6842 6.73684C32.9954 6.73684 32.3272 6.97126 31.7893 7.40154L8.00103 26.4322C7.20199 27.0714 6.73684 28.0392 6.73684 29.0625V57.2632H20.2105V45.9299L20.2171 45.825L23.5789 46.0351C20.2171 45.825 20.2172 45.8232 20.2173 45.8214L20.2176 45.8176L20.2181 45.8093L20.2194 45.7902L20.2231 45.7419C20.226 45.7053 20.2299 45.6597 20.2352 45.606C20.2457 45.4985 20.2616 45.3574 20.2851 45.1874C20.332 44.8484 20.4103 44.3884 20.5401 43.8468C20.7966 42.7762 21.2711 41.3149 22.1563 39.8242C24.0272 36.6731 27.5938 33.6842 33.6842 33.6842C39.7747 33.6842 43.3412 36.6731 45.2121 39.8242C46.0973 41.3149 46.5719 42.7762 46.8284 43.8468C46.9581 44.3884 47.0364 44.8484 47.0833 45.1874C47.1069 45.3574 47.1227 45.4985 47.1332 45.606C47.1385 45.6597 47.1424 45.7053 47.1454 45.7419L47.149 45.7902L47.1503 45.8093L47.1509 45.8176L47.1511 45.8214C47.1512 45.8232 47.1513 45.825 43.7895 46.0351L47.1513 45.825L47.1579 45.9299V57.2632H60.6316V29.0625C60.6316 28.0392 60.1664 27.0714 59.3674 26.4322L35.5791 7.40154C35.0413 6.97126 34.373 6.73684 33.6842 6.73684ZM40.4211 46.1954V57.2632C40.4211 60.9838 43.4372 64 47.1579 64H60.6316C64.3522 64 67.3684 60.9838 67.3684 57.2632V29.0625C67.3684 25.9926 65.973 23.0893 63.5759 21.1716L39.7876 2.14095C38.0552 0.755046 35.9027 0 33.6842 0C31.4657 0 29.3132 0.755048 27.5808 2.14095L3.79256 21.1716C1.39543 23.0893 0 25.9926 0 29.0625V57.2632C0 60.9838 3.01619 64 6.73684 64H20.2105C23.9312 64 26.9474 60.9838 26.9474 57.2632V46.1954C26.9502 46.1719 26.9538 46.1436 26.9583 46.1109C26.9794 45.9586 27.0195 45.7168 27.0915 45.4164C27.2385 44.8028 27.5008 44.0184 27.949 43.2636C28.7447 41.9233 30.2308 40.4211 33.6842 40.4211C37.1376 40.4211 38.6237 41.9233 39.4194 43.2636C39.8676 44.0184 40.1299 44.8028 40.2769 45.4164C40.3489 45.7168 40.389 45.9586 40.4101 46.1109C40.4146 46.1436 40.4182 46.1719 40.4211 46.1954Z" fill="#933EFF"/>
</svg>
