<svg width="60" height="60" viewBox="0 0 60 60" fill="none" xmlns="http://www.w3.org/2000/svg">
<path fill-rule="evenodd" clip-rule="evenodd" d="M23.5294 41.1478C33.2756 41.1478 41.1765 33.2524 41.1765 23.513C41.1765 13.7736 33.2756 5.87826 23.5294 5.87826C13.7832 5.87826 5.88236 13.7736 5.88236 23.513C5.88236 33.2524 13.7832 41.1478 23.5294 41.1478ZM23.5294 47.026C36.5244 47.026 47.0589 36.4989 47.0589 23.513C47.0589 10.5271 36.5244 0 23.5294 0C10.5345 0 0 10.5271 0 23.513C0 36.4989 10.5345 47.026 23.5294 47.026Z" fill="#8C95A9"/>
<path fill-rule="evenodd" clip-rule="evenodd" d="M41.3723 37.229L57.9201 53.7652C59.0687 54.913 59.0687 56.7739 57.9201 57.9217C56.7715 59.0695 54.9092 59.0695 53.7606 57.9217L37.2129 41.3855L41.3723 37.229Z" fill="#8C95A9"/>
</svg>
