<svg width="212" height="87" viewBox="0 0 212 87" fill="none" xmlns="http://www.w3.org/2000/svg">
<g filter="url(#filter0_d_68_38)">
<path fill-rule="evenodd" clip-rule="evenodd" d="M6 28.5C5.17157 28.5 4.5 27.8284 4.5 27L4.5 16C4.5 9.64873 9.64872 4.5 16 4.5L26 4.5C26.8284 4.5 27.5 5.17157 27.5 6C27.5 6.82843 26.8284 7.5 26 7.5L16 7.5C11.3056 7.5 7.5 11.3056 7.5 16L7.5 27C7.5 27.8284 6.82843 28.5 6 28.5Z" fill="#FFDC25"/>
<path fill-rule="evenodd" clip-rule="evenodd" d="M206 28.5C206.828 28.5 207.5 27.8284 207.5 27L207.5 16C207.5 9.64873 202.351 4.5 196 4.5L186 4.5C185.172 4.5 184.5 5.17157 184.5 6C184.5 6.82843 185.172 7.5 186 7.5L196 7.5C200.694 7.5 204.5 11.3056 204.5 16L204.5 27C204.5 27.8284 205.172 28.5 206 28.5Z" fill="#FFDC25"/>
<path fill-rule="evenodd" clip-rule="evenodd" d="M6 58.5C5.17157 58.5 4.5 59.1716 4.5 60L4.5 71C4.5 77.3513 9.64872 82.5 16 82.5L26 82.5C26.8284 82.5 27.5 81.8284 27.5 81C27.5 80.1716 26.8284 79.5 26 79.5L16 79.5C11.3056 79.5 7.5 75.6944 7.5 71L7.5 60C7.5 59.1716 6.82843 58.5 6 58.5Z" fill="#FFDC25"/>
<path fill-rule="evenodd" clip-rule="evenodd" d="M206 58.5C206.828 58.5 207.5 59.1716 207.5 60L207.5 71C207.5 77.3513 202.351 82.5 196 82.5L186 82.5C185.172 82.5 184.5 81.8284 184.5 81C184.5 80.1716 185.172 79.5 186 79.5L196 79.5C200.694 79.5 204.5 75.6944 204.5 71L204.5 60C204.5 59.1716 205.172 58.5 206 58.5Z" fill="#FFDC25"/>
</g>
<defs>
<filter id="filter0_d_68_38" x="0.5" y="0.5" width="211" height="86" filterUnits="userSpaceOnUse" color-interpolation-filters="sRGB">
<feFlood flood-opacity="0" result="BackgroundImageFix"/>
<feColorMatrix in="SourceAlpha" type="matrix" values="0 0 0 0 0 0 0 0 0 0 0 0 0 0 0 0 0 0 127 0" result="hardAlpha"/>
<feOffset/>
<feGaussianBlur stdDeviation="2"/>
<feComposite in2="hardAlpha" operator="out"/>
<feColorMatrix type="matrix" values="0 0 0 0 1 0 0 0 0 0.863333 0 0 0 0 0.145833 0 0 0 0.75 0"/>
<feBlend mode="normal" in2="BackgroundImageFix" result="effect1_dropShadow_68_38"/>
<feBlend mode="normal" in="SourceGraphic" in2="effect1_dropShadow_68_38" result="shape"/>
</filter>
</defs>
</svg>
