<svg width="120" height="115" viewBox="0 0 120 115" fill="none" xmlns="http://www.w3.org/2000/svg">
<g clip-path="url(#clip0_26_378)">
<path fill-rule="evenodd" clip-rule="evenodd" d="M59.7665 12.4533C58.5444 12.4533 57.3587 12.8692 56.4044 13.6327L14.1964 47.3991C12.7786 48.5333 11.9533 50.2505 11.9533 52.0661V102.103H35.8599V81.9943L35.8716 81.8081L41.8366 82.1809C35.8716 81.8081 35.8718 81.805 35.872 81.8018L35.8724 81.795L35.8734 81.7804L35.8757 81.7465L35.8822 81.6607C35.8873 81.5957 35.8943 81.515 35.9037 81.4195C35.9224 81.2288 35.9505 80.9784 35.9922 80.6768C36.0755 80.0753 36.2144 79.2592 36.4446 78.2982C36.8997 76.3986 37.7418 73.8059 39.3123 71.1607C42.6319 65.5699 48.9601 60.2665 59.7665 60.2665C70.5729 60.2665 76.9012 65.5699 80.2208 71.1607C81.7913 73.8059 82.6333 76.3986 83.0884 78.2982C83.3187 79.2592 83.4576 80.0753 83.5408 80.6768C83.5826 80.9784 83.6107 81.2288 83.6294 81.4195C83.6387 81.515 83.6457 81.5957 83.6509 81.6607L83.6574 81.7465L83.6597 81.7804L83.6607 81.795L83.6611 81.8018C83.6613 81.805 83.6615 81.8081 77.6965 82.1809L83.6615 81.8081L83.6732 81.9943V102.103H107.58V52.0661C107.58 50.2505 106.754 48.5333 105.337 47.3991L63.1287 13.6327C62.1744 12.8692 60.9887 12.4533 59.7665 12.4533ZM71.7198 82.4654V102.103C71.7198 108.705 77.0715 114.056 83.6732 114.056H107.58C114.181 114.056 119.533 108.705 119.533 102.103V52.0661C119.533 46.6192 117.057 41.4677 112.804 38.0651L70.5959 4.29873C67.5221 1.83969 63.7029 0.5 59.7665 0.5C55.8302 0.5 52.011 1.8397 48.9372 4.29873L6.7292 38.0651C2.47594 41.4677 0 46.6192 0 52.0661V102.103C0 108.705 5.35168 114.056 11.9533 114.056H35.8599C42.4615 114.056 47.8132 108.705 47.8132 102.103V82.4654C47.8182 82.4237 47.8246 82.3735 47.8327 82.3154C47.8701 82.0453 47.9413 81.6162 48.069 81.0832C48.3298 79.9944 48.7952 78.6027 49.5904 77.2634C51.0023 74.8854 53.6391 72.2198 59.7665 72.2198C65.894 72.2198 68.5307 74.8854 69.9427 77.2634C70.7379 78.6027 71.2033 79.9944 71.4641 81.0832C71.5918 81.6162 71.663 82.0453 71.7004 82.3154C71.7084 82.3735 71.7148 82.4237 71.7198 82.4654Z" fill="black"/>
</g>
<defs>
<clipPath id="clip0_26_378">
<rect width="120" height="114" fill="white" transform="translate(0 0.5)"/>
</clipPath>
</defs>
</svg>
