<svg width="65" height="64" viewBox="0 0 65 64" fill="none" xmlns="http://www.w3.org/2000/svg">
<path fill-rule="evenodd" clip-rule="evenodd" d="M30.5029 0H34.1582C37.5479 0 40.4525 2.4241 41.0588 5.75905L41.7119 9.35132L44.7139 7.27303C47.5008 5.34362 51.2688 5.68338 53.6656 8.0802L56.2503 10.6649C58.6472 13.0618 58.9869 16.8297 57.0575 19.6166L54.9792 22.6186L58.5715 23.2718C61.9065 23.8781 64.3306 26.7827 64.3306 30.1723V33.8277C64.3306 37.2173 61.9065 40.1219 58.5715 40.7282L54.9792 41.3814L57.0575 44.3834C58.9869 47.1703 58.6472 50.9382 56.2503 53.335L53.6656 55.9198C51.2688 58.3166 47.5008 58.6564 44.7139 56.7269L41.7119 54.6487L41.0588 58.2409C40.4525 61.5759 37.5479 64 34.1582 64H30.5029C27.1133 64 24.2087 61.5759 23.6023 58.2409L22.9997 54.9264C22.9037 54.889 22.8079 54.851 22.7125 54.8125L19.9472 56.7269C17.1603 58.6564 13.3923 58.3166 10.9955 55.9198L8.41079 53.335C6.01396 50.9382 5.67421 47.1703 7.60361 44.3833L9.36959 41.8325C9.29004 41.6503 9.21264 41.4669 9.1374 41.2824L6.08962 40.7282C2.75467 40.1219 0.330566 37.2173 0.330566 33.8277V30.1723C0.330566 26.7827 2.75467 23.8781 6.08962 23.2718L9.1374 22.7176C9.21264 22.5331 9.29005 22.3497 9.36959 22.1675L7.60361 19.6166C5.6742 16.8297 6.01396 13.0618 8.41079 10.6649L10.9955 8.08021C13.3923 5.68338 17.1603 5.34363 19.9472 7.27304L22.7125 9.18748C22.8079 9.14894 22.9037 9.11098 22.9997 9.07361L23.6023 5.75905C24.2087 2.4241 27.1133 0 30.5029 0ZM30.5029 5.26027C29.6555 5.26027 28.9293 5.8663 28.7777 6.70004L27.8124 12.0094C27.6868 12.7001 27.1591 13.2422 26.4853 13.4392C25.3495 13.7711 24.257 14.2045 23.2183 14.7288C22.6121 15.0348 21.884 15.0117 21.3257 14.6252L16.953 11.598C16.2563 11.1156 15.3143 11.2006 14.7151 11.7998L12.1304 14.3845C11.5312 14.9837 11.4462 15.9257 11.9286 16.6224L14.8451 20.8351C15.2433 21.4104 15.2549 22.1639 14.9207 22.7787C14.3255 23.8736 13.8329 25.0326 13.456 26.2425C13.2508 26.9013 12.7143 27.4138 12.0354 27.5372L7.0306 28.4472C6.19687 28.5988 5.59084 29.3249 5.59084 30.1723V33.8277C5.59084 34.6751 6.19687 35.4012 7.0306 35.5528L12.0354 36.4628C12.7143 36.5862 13.2508 37.0987 13.456 37.7575C13.8329 38.9674 14.3255 40.1264 14.9207 41.2213C15.2549 41.836 15.2433 42.5896 14.845 43.1649L11.9286 47.3775C11.4462 48.0743 11.5312 49.0163 12.1304 49.6155L14.7151 52.2002C15.3143 52.7994 16.2563 52.8843 16.953 52.402L21.3257 49.3748C21.884 48.9882 22.6121 48.9652 23.2183 49.2712C24.257 49.7955 25.3495 50.2289 26.4853 50.5608C27.1591 50.7578 27.6868 51.2999 27.8124 51.9906L28.7777 57.3C28.9293 58.1337 29.6555 58.7397 30.5029 58.7397H34.1582C35.0056 58.7397 35.7318 58.1337 35.8834 57.3L36.8986 51.7165C37.0189 51.0547 37.5096 50.5267 38.1464 50.3102C39.1532 49.9679 40.1226 49.5449 41.0471 49.0489C41.6604 48.7199 42.4093 48.7336 42.9815 49.1297L47.7081 52.402C48.4049 52.8843 49.3468 52.7994 49.946 52.2002L52.5308 49.6155C53.13 49.0163 53.2149 48.0743 52.7326 47.3776L49.3472 42.4876C48.9629 41.9324 48.9378 41.2089 49.2387 40.6044C49.6698 39.7384 50.0378 38.8355 50.3368 37.9018C50.5456 37.2496 51.0795 36.7439 51.7532 36.6214L57.6305 35.5528C58.4643 35.4012 59.0703 34.6751 59.0703 33.8277V30.1723C59.0703 29.3249 58.4643 28.5988 57.6305 28.4472L51.7532 27.3786C51.0795 27.2561 50.5456 26.7503 50.3368 26.0982C50.0378 25.1645 49.6698 24.2616 49.2387 23.3956C48.9378 22.7911 48.9629 22.0675 49.3472 21.5124L52.7326 16.6224C53.2149 15.9257 53.13 14.9837 52.5308 14.3845L49.946 11.7998C49.3468 11.2006 48.4049 11.1156 47.7081 11.598L42.9815 14.8703C42.4093 15.2664 41.6604 15.2801 41.0471 14.9511C40.1226 14.4551 39.1532 14.0321 38.1464 13.6898C37.5096 13.4733 37.0189 12.9453 36.8986 12.2835L35.8834 6.70004C35.7318 5.8663 35.0056 5.26027 34.1582 5.26027H30.5029Z" fill="black"/>
<path fill-rule="evenodd" clip-rule="evenodd" d="M31.8143 38.3083C35.4566 38.3083 38.4093 35.484 38.4093 32C38.4093 28.5161 35.4566 25.6918 31.8143 25.6918C28.172 25.6918 25.2193 28.5161 25.2193 32C25.2193 35.484 28.172 38.3083 31.8143 38.3083ZM31.8143 43.3549C38.3705 43.3549 43.6853 38.2711 43.6853 32C43.6853 25.7289 38.3705 20.6452 31.8143 20.6452C25.2582 20.6452 19.9434 25.7289 19.9434 32C19.9434 38.2711 25.2582 43.3549 31.8143 43.3549Z" fill="black"/>
</svg>
