<svg width="120" height="115" viewBox="0 0 120 115" fill="none" xmlns="http://www.w3.org/2000/svg">
<g clip-path="url(#clip0_26_371)">
<path d="M0 51.9712C0 48.3942 1.60198 45.0051 4.36607 42.7346L52.7032 3.02908C54.6939 1.39386 57.1903 0.5 59.7665 0.5C62.3427 0.5 64.8391 1.39386 66.8298 3.02908L115.167 42.7346C117.931 45.0051 119.533 48.3942 119.533 51.9712V108.08C119.533 111.381 116.857 114.056 113.556 114.056H83.6731C80.3723 114.056 77.6965 111.381 77.6965 108.08V82.1809C77.6965 82.1809 76.7004 66.2432 59.7665 66.2432C42.8327 66.2432 41.8366 82.1809 41.8366 82.1809V108.08C41.8366 111.381 39.1607 114.056 35.8599 114.056H5.97665C2.67584 114.056 0 111.381 0 108.08V51.9712Z" fill="black"/>
</g>
<defs>
<clipPath id="clip0_26_371">
<rect width="120" height="114" fill="white" transform="translate(0 0.5)"/>
</clipPath>
</defs>
</svg>
