<svg width="128" height="129" viewBox="0 0 128 129" fill="none" xmlns="http://www.w3.org/2000/svg">
<g clip-path="url(#clip0_26_363)">
<path fill-rule="evenodd" clip-rule="evenodd" d="M87.8995 88.3613C90.2335 86.0273 94.0177 86.0273 96.3517 88.3613L125.752 117.761C128.086 120.095 128.086 123.879 125.752 126.213C123.418 128.547 119.633 128.547 117.299 126.213L87.8995 96.8136C85.5654 94.4796 85.5654 90.6953 87.8995 88.3613Z" fill="black"/>
<path fill-rule="evenodd" clip-rule="evenodd" d="M74.23 1.70978C78.0537 3.57471 80.598 7.33135 80.9109 11.574L82.5631 33.9727L100.209 47.8675C103.551 50.4995 105.243 54.7095 104.65 58.9223C104.058 63.1351 101.272 66.7158 97.3335 68.3245L76.5416 76.8173L68.7796 97.8929C67.3093 101.885 63.8281 104.795 59.6385 105.534C55.4489 106.272 51.1824 104.729 48.4355 101.48L33.9332 84.3304L11.4906 83.4609C7.23956 83.2962 3.39641 80.8846 1.39917 77.1283C-0.598065 73.3721 -0.448366 68.8373 1.79225 65.221L13.6212 46.129L7.51295 24.5161C6.35593 20.4222 7.46197 16.0219 10.4172 12.9617C13.3724 9.90146 17.7314 8.64254 21.8632 9.65597L43.6761 15.0063L62.3437 2.51818C65.8796 0.152713 70.4063 -0.155151 74.23 1.70978ZM45.9444 27.8702L19.0157 21.2652L26.5565 47.9469L11.9533 71.5166L39.6594 72.5899L57.5628 93.7618L67.1453 67.7434L92.8135 57.2587L71.0296 40.1051L68.99 12.4533L45.9444 27.8702Z" fill="black"/>
<path fill-rule="evenodd" clip-rule="evenodd" d="M87.8995 88.3613C90.2335 86.0273 94.0177 86.0273 96.3517 88.3613L125.752 117.761C128.086 120.095 128.086 123.879 125.752 126.213C123.418 128.547 119.633 128.547 117.299 126.213L87.8995 96.8136C85.5654 94.4796 85.5654 90.6953 87.8995 88.3613Z" fill="black"/>
<path fill-rule="evenodd" clip-rule="evenodd" d="M74.23 1.70978C78.0537 3.57471 80.598 7.33135 80.9109 11.574L82.5631 33.9727L100.209 47.8675C103.551 50.4995 105.243 54.7095 104.65 58.9223C104.058 63.1351 101.272 66.7158 97.3335 68.3245L76.5416 76.8173L68.7796 97.8929C67.3093 101.885 63.8281 104.795 59.6385 105.534C55.4489 106.272 51.1824 104.729 48.4355 101.48L33.9332 84.3304L11.4906 83.4609C7.23956 83.2962 3.39641 80.8846 1.39917 77.1283C-0.598065 73.3721 -0.448366 68.8373 1.79225 65.221L13.6212 46.129L7.51295 24.5161C6.35593 20.4222 7.46197 16.0219 10.4172 12.9617C13.3724 9.90146 17.7314 8.64254 21.8632 9.65597L43.6761 15.0063L62.3437 2.51818C65.8796 0.152713 70.4063 -0.155151 74.23 1.70978ZM45.9444 27.8702L19.0157 21.2652L26.5565 47.9469L11.9533 71.5166L39.6594 72.5899L57.5628 93.7618L67.1453 67.7434L92.8135 57.2587L71.0296 40.1051L68.99 12.4533L45.9444 27.8702Z" fill="black"/>
</g>
<defs>
<clipPath id="clip0_26_363">
<rect width="128" height="128" fill="white" transform="translate(0 0.5)"/>
</clipPath>
</defs>
</svg>
