<svg width="122" height="123" viewBox="0 0 122 123" fill="none" xmlns="http://www.w3.org/2000/svg">
<g clip-path="url(#clip0_26_373)">
<path fill-rule="evenodd" clip-rule="evenodd" d="M7.96887 38.3521C4.66806 38.3521 1.99222 35.6763 1.99222 32.3755V10.4611C1.99222 4.95973 6.45195 0.5 11.9533 0.5H37.8521C41.153 0.5 43.8288 3.17584 43.8288 6.47665C43.8288 9.77747 41.153 12.4533 37.8521 12.4533H13.9455V32.3755C13.9455 35.6763 11.2697 38.3521 7.96887 38.3521ZM115.549 38.3521C118.849 38.3521 121.525 35.6763 121.525 32.3755V10.4611C121.525 4.95973 117.066 0.5 111.564 0.5H85.6654C82.3646 0.5 79.6887 3.17584 79.6887 6.47665C79.6887 9.77747 82.3646 12.4533 85.6654 12.4533H109.572V32.3755C109.572 35.6763 112.248 38.3521 115.549 38.3521ZM1.99222 90.1498C1.99222 86.849 4.66806 84.1732 7.96887 84.1732C11.2697 84.1732 13.9455 86.849 13.9455 90.1498V110.072H37.8521C41.153 110.072 43.8288 112.748 43.8288 116.049C43.8288 119.349 41.153 122.025 37.8521 122.025H11.9533C6.45195 122.025 1.99222 117.566 1.99222 112.064V90.1498ZM115.549 84.1732C118.849 84.1732 121.525 86.849 121.525 90.1498V112.064C121.525 117.566 117.066 122.025 111.564 122.025H85.6654C82.3646 122.025 79.6887 119.349 79.6887 116.049C79.6887 112.748 82.3646 110.072 85.6654 110.072H109.572V90.1498C109.572 86.849 112.248 84.1732 115.549 84.1732ZM5.97665 56.2821C2.67584 56.2821 0 58.9579 0 62.2588C0 65.5596 2.67584 68.2354 5.97665 68.2354H115.549C118.849 68.2354 121.525 65.5596 121.525 62.2588C121.525 58.9579 118.849 56.2821 115.549 56.2821H5.97665Z" fill="black"/>
</g>
<defs>
<clipPath id="clip0_26_373">
<rect width="122" height="122" fill="white" transform="translate(0 0.5)"/>
</clipPath>
</defs>
</svg>
