<svg width="120" height="122" viewBox="0 0 120 122" fill="none" xmlns="http://www.w3.org/2000/svg">
<g clip-path="url(#clip0_26_380)">
<path fill-rule="evenodd" clip-rule="evenodd" d="M119.533 18.4388C119.533 6.77409 108.571 -1.78492 97.2545 1.04417L49.441 12.9975C41.4592 14.9929 35.8596 22.1646 35.8596 30.3921V76.0551C32.3434 74.0211 28.2609 72.857 23.9066 72.857C10.7034 72.857 0 83.5603 0 96.7636C0 109.967 10.7034 120.67 23.9066 120.67C36.7762 120.67 47.2707 110.501 47.7929 97.7596H47.813V96.88C47.8131 96.8412 47.8132 96.8024 47.8132 96.7636C47.8132 96.7247 47.8131 96.686 47.813 96.6472V30.3921C47.813 27.6496 49.6795 25.2591 52.3401 24.5939L100.154 12.6406C103.926 11.6976 107.58 14.5506 107.58 18.4388V62.1097C104.063 60.0756 99.9809 58.9114 95.6265 58.9114C82.4232 58.9114 71.7198 69.6148 71.7198 82.818C71.7198 96.0213 82.4232 106.725 95.6265 106.725C108.83 106.725 119.533 96.0213 119.533 82.818C119.533 82.1471 119.505 81.4827 119.451 80.8258H119.533V18.4388ZM35.8596 96.6813V96.8459C35.8154 103.41 30.4808 108.717 23.9066 108.717C17.305 108.717 11.9533 103.365 11.9533 96.7636C11.9533 90.1619 17.305 84.8103 23.9066 84.8103C30.4808 84.8103 35.8154 90.1175 35.8596 96.6813ZM95.6265 94.7713C102.228 94.7713 107.58 89.4197 107.58 82.818C107.58 76.2164 102.228 70.8647 95.6265 70.8647C89.0248 70.8647 83.6732 76.2164 83.6732 82.818C83.6732 89.4197 89.0248 94.7713 95.6265 94.7713Z" fill="black"/>
</g>
<defs>
<clipPath id="clip0_26_380">
<rect width="120" height="121" fill="white" transform="translate(0 0.5)"/>
</clipPath>
</defs>
</svg>
