<svg width="61" height="60" viewBox="0 0 61 60" fill="none" xmlns="http://www.w3.org/2000/svg">
<path fill-rule="evenodd" clip-rule="evenodd" d="M24.5265 41.1478C34.2727 41.1478 42.1736 33.2524 42.1736 23.513C42.1736 13.7736 34.2727 5.87826 24.5265 5.87826C14.7803 5.87826 6.87943 13.7736 6.87943 23.513C6.87943 33.2524 14.7803 41.1478 24.5265 41.1478ZM24.5265 47.026C37.5215 47.026 48.0559 36.4989 48.0559 23.513C48.0559 10.5271 37.5215 0 24.5265 0C11.5316 0 0.99707 10.5271 0.99707 23.513C0.99707 36.4989 11.5316 47.026 24.5265 47.026Z" fill="#6051E7"/>
<path fill-rule="evenodd" clip-rule="evenodd" d="M42.3699 37.229L58.9176 53.7652C60.0662 54.913 60.0662 56.7739 58.9176 57.9217C57.769 59.0695 55.9068 59.0695 54.7582 57.9217L38.2104 41.3855L42.3699 37.229Z" fill="#6051E7"/>
</svg>
