<svg width="65" height="64" viewBox="0 0 65 64" fill="none" xmlns="http://www.w3.org/2000/svg">
<path fill-rule="evenodd" clip-rule="evenodd" d="M25.7632 43.891C36.1519 43.891 44.5736 35.4693 44.5736 25.0806C44.5736 14.6919 36.1519 6.27014 25.7632 6.27014C15.3745 6.27014 6.95276 14.6919 6.95276 25.0806C6.95276 35.4693 15.3745 43.891 25.7632 43.891ZM25.7632 50.1611C39.6148 50.1611 50.8437 38.9322 50.8437 25.0806C50.8437 11.2289 39.6148 0 25.7632 0C11.9116 0 0.682617 11.2289 0.682617 25.0806C0.682617 38.9322 11.9116 50.1611 25.7632 50.1611Z" fill="#933EFF"/>
<path fill-rule="evenodd" clip-rule="evenodd" d="M44.7823 39.7109L62.4209 57.3495C63.6453 58.5738 63.6453 60.5588 62.4209 61.7832C61.1966 63.0075 59.2116 63.0075 57.9873 61.7832L40.3487 44.1446L44.7823 39.7109Z" fill="#933EFF"/>
</svg>
