<svg width="69" height="64" viewBox="0 0 69 64" fill="none" xmlns="http://www.w3.org/2000/svg">
<path fill-rule="evenodd" clip-rule="evenodd" d="M68.2497 10.1447C68.2497 3.54812 62.0504 -1.29217 55.6507 0.30774L28.6112 7.06758C24.0973 8.19605 20.9307 12.2518 20.9307 16.9046L20.9307 38.7693C18.9422 37.619 16.6335 36.9607 14.171 36.9607C6.70433 36.9607 0.651367 43.0136 0.651367 50.4803C0.651367 57.947 6.70433 64 14.171 64C21.4491 64 27.3839 58.2491 27.6792 51.0436H27.6905V50.5461C27.6907 50.5242 27.6907 50.5023 27.6907 50.4803C27.6907 50.4584 27.6907 50.4364 27.6905 50.4145L27.6906 16.9046C27.6906 15.3537 28.7461 14.0017 30.2507 13.6256L57.2902 6.86574C59.4234 6.33244 61.4899 7.94587 61.4899 10.1447V30.8829C59.5013 29.7326 57.1926 29.0742 54.73 29.0742C47.2633 29.0742 41.2104 35.1271 41.2104 42.5939C41.2104 50.0606 47.2633 56.1135 54.73 56.1135C62.1967 56.1135 68.2497 50.0606 68.2497 42.5939C68.2497 42.2144 68.2341 41.8387 68.2034 41.4672H68.2497V10.1447ZM20.9307 50.4338V50.5269C20.9057 54.2388 17.8889 57.2402 14.171 57.2402C10.4377 57.2402 7.4112 54.2137 7.4112 50.4803C7.4112 46.747 10.4377 43.7205 14.171 43.7205C17.8889 43.7205 20.9057 46.7219 20.9307 50.4338ZM54.73 49.3537C58.4634 49.3537 61.4899 46.3272 61.4899 42.5939C61.4899 38.8605 58.4634 35.834 54.73 35.834C50.9967 35.834 47.9702 38.8605 47.9702 42.5939C47.9702 46.3272 50.9967 49.3537 54.73 49.3537Z" fill="black"/>
</svg>
