<svg width="122" height="124" viewBox="0 0 122 124" fill="none" xmlns="http://www.w3.org/2000/svg">
<g clip-path="url(#clip0_26_375)">
<path fill-rule="evenodd" clip-rule="evenodd" d="M47.8132 84.1732C67.6181 84.1732 83.6732 68.1181 83.6732 48.3132C83.6732 28.5083 67.6181 12.4533 47.8132 12.4533C28.0083 12.4533 11.9533 28.5083 11.9533 48.3132C11.9533 68.1181 28.0083 84.1732 47.8132 84.1732ZM47.8132 96.1265C74.2197 96.1265 95.6265 74.7197 95.6265 48.3132C95.6265 21.9067 74.2197 0.5 47.8132 0.5C21.4067 0.5 0 21.9067 0 48.3132C0 74.7197 21.4067 96.1265 47.8132 96.1265Z" fill="black"/>
<path fill-rule="evenodd" clip-rule="evenodd" d="M84.0713 76.2043L117.697 109.83C120.031 112.164 120.031 115.949 117.697 118.283C115.363 120.617 111.579 120.617 109.245 118.283L75.6191 84.6566L84.0713 76.2043Z" fill="black"/>
</g>
<defs>
<clipPath id="clip0_26_375">
<rect width="122" height="123" fill="white" transform="translate(0 0.5)"/>
</clipPath>
</defs>
</svg>
