<svg width="64" height="64" viewBox="0 0 64 64" fill="none" xmlns="http://www.w3.org/2000/svg">
<path fill-rule="evenodd" clip-rule="evenodd" d="M30.1723 0H33.8277C37.2173 0 40.1219 2.4241 40.7282 5.75905L41.3814 9.35132L44.3834 7.27303C47.1703 5.34362 50.9382 5.68338 53.335 8.0802L55.9198 10.6649C58.3166 13.0618 58.6564 16.8297 56.7269 19.6166L54.6487 22.6186L58.2409 23.2718C61.5759 23.8781 64 26.7827 64 30.1723V33.8277C64 37.2173 61.5759 40.1219 58.2409 40.7282L54.6487 41.3814L56.7269 44.3834C58.6564 47.1703 58.3166 50.9382 55.9198 53.335L53.335 55.9198C50.9382 58.3166 47.1703 58.6564 44.3834 56.7269L41.3814 54.6487L40.7282 58.2409C40.1219 61.5759 37.2173 64 33.8277 64H30.1723C26.7827 64 23.8781 61.5759 23.2718 58.2409L22.6691 54.9264C22.5731 54.889 22.4774 54.851 22.3819 54.8125L19.6166 56.7269C16.8297 58.6564 13.0618 58.3166 10.6649 55.9198L8.08022 53.335C5.68339 50.9382 5.34364 47.1703 7.27305 44.3833L9.03902 41.8325C8.95948 41.6503 8.88207 41.4669 8.80683 41.2824L5.75905 40.7282C2.4241 40.1219 0 37.2173 0 33.8277V30.1723C0 26.7827 2.4241 23.8781 5.75905 23.2718L8.80683 22.7176C8.88207 22.5331 8.95948 22.3497 9.03902 22.1675L7.27305 19.6166C5.34364 16.8297 5.6834 13.0618 8.08022 10.6649L10.6649 8.08021C13.0618 5.68338 16.8297 5.34363 19.6166 7.27304L22.382 9.18748C22.4774 9.14894 22.5731 9.11098 22.6691 9.07361L23.2718 5.75905C23.8781 2.4241 26.7827 0 30.1723 0ZM30.1723 5.26027C29.3249 5.26027 28.5988 5.8663 28.4472 6.70004L27.4818 12.0094C27.3563 12.7001 26.8285 13.2422 26.1547 13.4392C25.0189 13.7711 23.9265 14.2045 22.8878 14.7288C22.2816 15.0348 21.5534 15.0117 20.9951 14.6252L16.6224 11.598C15.9257 11.1156 14.9837 11.2006 14.3845 11.7998L11.7998 14.3845C11.2006 14.9837 11.1157 15.9257 11.598 16.6224L14.5145 20.8351C14.9127 21.4104 14.9244 22.1639 14.5902 22.7787C13.9949 23.8736 13.5024 25.0326 13.1255 26.2425C12.9202 26.9013 12.3838 27.4138 11.7048 27.5372L6.70004 28.4472C5.8663 28.5988 5.26027 29.3249 5.26027 30.1723V33.8277C5.26027 34.6751 5.8663 35.4012 6.70004 35.5528L11.7048 36.4628C12.3838 36.5862 12.9202 37.0987 13.1255 37.7575C13.5024 38.9674 13.9949 40.1264 14.5902 41.2213C14.9243 41.836 14.9127 42.5896 14.5145 43.1649L11.598 47.3775C11.1157 48.0743 11.2006 49.0163 11.7998 49.6155L14.3845 52.2002C14.9837 52.7994 15.9257 52.8843 16.6224 52.402L20.9951 49.3748C21.5534 48.9882 22.2816 48.9652 22.8877 49.2712C23.9265 49.7955 25.0189 50.2289 26.1547 50.5608C26.8285 50.7578 27.3563 51.2999 27.4818 51.9906L28.4472 57.3C28.5988 58.1337 29.3249 58.7397 30.1723 58.7397H33.8277C34.6751 58.7397 35.4012 58.1337 35.5528 57.3L36.568 51.7165C36.6883 51.0547 37.179 50.5267 37.8158 50.3102C38.8226 49.9679 39.7921 49.5449 40.7166 49.0489C41.3298 48.7199 42.0788 48.7336 42.6509 49.1297L47.3776 52.402C48.0743 52.8843 49.0163 52.7994 49.6155 52.2002L52.2002 49.6155C52.7994 49.0163 52.8843 48.0743 52.402 47.3776L49.0167 42.4876C48.6323 41.9324 48.6073 41.2089 48.9082 40.6044C49.3392 39.7384 49.7072 38.8355 50.0062 37.9018C50.215 37.2496 50.7489 36.7439 51.4226 36.6214L57.3 35.5528C58.1337 35.4012 58.7397 34.6751 58.7397 33.8277V30.1723C58.7397 29.3249 58.1337 28.5988 57.3 28.4472L51.4226 27.3786C50.7489 27.2561 50.215 26.7503 50.0062 26.0982C49.7072 25.1645 49.3392 24.2616 48.9082 23.3956C48.6073 22.7911 48.6323 22.0675 49.0167 21.5124L52.402 16.6224C52.8843 15.9257 52.7994 14.9837 52.2002 14.3845L49.6155 11.7998C49.0163 11.2006 48.0743 11.1156 47.3776 11.598L42.6509 14.8703C42.0787 15.2664 41.3298 15.2801 40.7165 14.9511C39.7921 14.4551 38.8226 14.0321 37.8158 13.6898C37.179 13.4733 36.6883 12.9453 36.568 12.2835L35.5528 6.70004C35.4012 5.8663 34.6751 5.26027 33.8277 5.26027H30.1723Z" fill="#6051E7"/>
<path fill-rule="evenodd" clip-rule="evenodd" d="M31.4838 38.3083C35.1261 38.3083 38.0787 35.484 38.0787 32C38.0787 28.5161 35.1261 25.6918 31.4838 25.6918C27.8415 25.6918 24.8888 28.5161 24.8888 32C24.8888 35.484 27.8415 38.3083 31.4838 38.3083ZM31.4838 43.3549C38.0399 43.3549 43.3547 38.2711 43.3547 32C43.3547 25.7289 38.0399 20.6452 31.4838 20.6452C24.9276 20.6452 19.6128 25.7289 19.6128 32C19.6128 38.2711 24.9276 43.3549 31.4838 43.3549Z" fill="#6051E7"/>
</svg>
