<svg width="68" height="64" viewBox="0 0 68 64" fill="none" xmlns="http://www.w3.org/2000/svg">
<path fill-rule="evenodd" clip-rule="evenodd" d="M67.5983 10.1447C67.5983 3.54812 61.399 -1.29217 54.9994 0.30774L27.9599 7.06758C23.446 8.19605 20.2793 12.2518 20.2793 16.9046L20.2793 38.7693C18.2908 37.619 15.9821 36.9607 13.5197 36.9607C6.05296 36.9607 0 43.0136 0 50.4803C0 57.947 6.05296 64 13.5197 64C20.7977 64 26.7325 58.2491 27.0278 51.0436H27.0392V50.5462C27.0393 50.5242 27.0393 50.5023 27.0393 50.4803C27.0393 50.4584 27.0393 50.4364 27.0392 50.4145L27.0392 16.9046C27.0392 15.3537 28.0947 14.0017 29.5994 13.6256L56.6388 6.86574C58.7721 6.33244 60.8385 7.94587 60.8385 10.1447V30.8829C58.8499 29.7326 56.5412 29.0742 54.0787 29.0742C46.612 29.0742 40.559 35.1271 40.559 42.5939C40.559 50.0606 46.612 56.1135 54.0787 56.1135C61.5454 56.1135 67.5983 50.0606 67.5983 42.5939C67.5983 42.2144 67.5827 41.8387 67.5521 41.4672H67.5983V10.1447ZM20.2793 50.4338V50.5269C20.2543 54.2388 17.2375 57.2402 13.5197 57.2402C9.78631 57.2402 6.75983 54.2137 6.75983 50.4803C6.75983 46.747 9.78631 43.7205 13.5197 43.7205C17.2375 43.7205 20.2543 46.7219 20.2793 50.4338ZM54.0787 49.3537C57.812 49.3537 60.8385 46.3272 60.8385 42.5939C60.8385 38.8605 57.812 35.834 54.0787 35.834C50.3453 35.834 47.3188 38.8605 47.3188 42.5939C47.3188 46.3272 50.3453 49.3537 54.0787 49.3537Z" fill="#8C95A9"/>
</svg>
